<svg id="SvgjsSvg1001" width="288" height="288" xmlns="http://www.w3.org/2000/svg" version="1.1" xmlns:xlink="http://www.w3.org/1999/xlink" xmlns:svgjs="http://svgjs.com/svgjs"><defs id="SvgjsDefs1002"></defs><g id="SvgjsG1008" transform="matrix(1,0,0,1,0,0)"><svg xmlns="http://www.w3.org/2000/svg" width="288" height="288" version="1.0" viewBox="0 0 960 960"><g fill="#087246" class="color777a88 svgShape"><path d="M162 738 c-17 -17 -17 -419 0 -436 7 -7 42 -12 85 -12 72 0 74 -1 117 -40 42 -39 45 -40 116 -40 71 0 74 1 116 40 42 39 46 40 113 40 104 0 101 -6 101 230 0 167 -2 201 -16 214 -13 14 -56 16 -318 16 -221 0 -305 -3 -314 -12z m391 -95 c64 -32 88 -134 47 -201 -27 -44 -96 -75 -146 -66 -48 9 -101 57 -115 105 -23 75 17 146 98 174 40 14 70 11 116 -12z" fill="#3dc76f" class="color000 svgShape"></path><path d="M407 594 c-75 -74 -12 -198 90 -179 82 15 113 116 54 176 -40 40 -106 41 -144 3z" fill="#3dc76f" class="color000 svgShape"></path></g></svg></g></svg>