<!DOCTYPE svg PUBLIC "-//W3C//DTD SVG 20010904//EN" "http://www.w3.org/TR/2001/REC-SVG-20010904/DTD/svg10.dtd">
<svg version="1.0" xmlns="http://www.w3.org/2000/svg" width="30" height="30" viewBox="0 0 960 960" preserveAspectRatio="xMidYMid meet">
<g id="layer101" fill="#777a88" stroke="none">
 <path d="M162 738 c-17 -17 -17 -419 0 -436 7 -7 42 -12 85 -12 72 0 74 -1 117 -40 42 -39 45 -40 116 -40 71 0 74 1 116 40 42 39 46 40 113 40 104 0 101 -6 101 230 0 167 -2 201 -16 214 -13 14 -56 16 -318 16 -221 0 -305 -3 -314 -12z m391 -95 c64 -32 88 -134 47 -201 -27 -44 -96 -75 -146 -66 -48 9 -101 57 -115 105 -23 75 17 146 98 174 40 14 70 11 116 -12z"/>
 <path d="M407 594 c-75 -74 -12 -198 90 -179 82 15 113 116 54 176 -40 40 -106 41 -144 3z"/>
 </g>

</svg>
